<mxfile host="app.diagrams.net" modified="2021-04-07T11:46:57.520Z" agent="5.0 (Windows NT 10.0; Win64; x64) AppleWebKit/537.36 (KHTML, like Gecko) Chrome/89.0.4389.114 Safari/537.36" etag="WwZgECtUgdJT0g04v96O" version="14.4.9" type="github" pages="2">
  <diagram id="AdfIWlkFGy2KIgNN1GQp" name="recup">
    <mxGraphModel dx="813" dy="403" grid="1" gridSize="10" guides="1" tooltips="1" connect="1" arrows="1" fold="1" page="1" pageScale="1" pageWidth="827" pageHeight="1169" math="0" shadow="0">
      <root>
        <mxCell id="0" />
        <mxCell id="1" parent="0" />
        <mxCell id="I4Iv1_8okc4qpFNduwSg-1" value="&lt;pre style=&quot;text-align: center ; box-sizing: border-box ; overflow: auto ; padding: 0px ; margin: 1em 2em ; line-height: inherit ; word-break: break-all ; overflow-wrap: break-word ; background-color: rgb(255 , 255 , 255) ; border: 0px ; border-radius: 2px&quot;&gt;&lt;b&gt;&lt;font style=&quot;font-size: 18px&quot; color=&quot;#0000ff&quot;&gt;# utiliser csv_reader :&lt;/font&gt;&lt;/b&gt;&lt;/pre&gt;&lt;pre style=&quot;box-sizing: border-box ; overflow: auto ; font-size: 14px ; padding: 0px ; margin: 1em 2em ; line-height: inherit ; word-break: break-all ; overflow-wrap: break-word ; background-color: rgb(255 , 255 , 255) ; border: 0px ; border-radius: 2px&quot;&gt;&lt;code class=&quot;cm-s-ipython language-python&quot; style=&quot;box-sizing: border-box ; padding: 0px ; border-radius: 0px ; border: 0px&quot;&gt;&lt;span class=&quot;cm-keyword&quot; style=&quot;box-sizing: border-box ; color: rgb(0 , 128 , 0) ; font-weight: bold&quot;&gt;with&lt;/span&gt; &lt;span class=&quot;cm-builtin&quot; style=&quot;box-sizing: border-box ; color: rgb(0 , 128 , 0)&quot;&gt;open&lt;/span&gt;(&lt;span class=&quot;cm-string&quot; style=&quot;box-sizing: border-box ; color: rgb(186 , 33 , 33)&quot;&gt;&#39;filename.csv&#39;&lt;/span&gt;, &lt;span class=&quot;cm-variable&quot; style=&quot;box-sizing: border-box&quot;&gt;mode&lt;/span&gt; &lt;span class=&quot;cm-operator&quot; style=&quot;box-sizing: border-box ; color: rgb(170 , 34 , 255) ; font-weight: bold&quot;&gt;=&lt;/span&gt; &lt;span class=&quot;cm-string&quot; style=&quot;box-sizing: border-box ; color: rgb(186 , 33 , 33)&quot;&gt;&quot;r&quot;&lt;/span&gt;, &lt;span class=&quot;cm-variable&quot; style=&quot;box-sizing: border-box&quot;&gt;encoding&lt;/span&gt;&lt;span class=&quot;cm-operator&quot; style=&quot;box-sizing: border-box ; color: rgb(170 , 34 , 255) ; font-weight: bold&quot;&gt;=&lt;/span&gt;&lt;span class=&quot;cm-string&quot; style=&quot;box-sizing: border-box ; color: rgb(186 , 33 , 33)&quot;&gt;&#39;utf-8&#39;&lt;/span&gt;, &lt;span class=&quot;cm-variable&quot; style=&quot;box-sizing: border-box&quot;&gt;newline&lt;/span&gt; &lt;span class=&quot;cm-operator&quot; style=&quot;box-sizing: border-box ; color: rgb(170 , 34 , 255) ; font-weight: bold&quot;&gt;=&lt;/span&gt; &lt;span class=&quot;cm-string&quot; style=&quot;box-sizing: border-box ; color: rgb(186 , 33 , 33)&quot;&gt;&#39;&#39;&lt;/span&gt;) &lt;span class=&quot;cm-keyword&quot; style=&quot;box-sizing: border-box ; color: rgb(0 , 128 , 0) ; font-weight: bold&quot;&gt;as&lt;/span&gt; &lt;span class=&quot;cm-variable&quot; style=&quot;box-sizing: border-box&quot;&gt;csvFile&lt;/span&gt; :&lt;br&gt;    &lt;span class=&quot;cm-variable&quot; style=&quot;box-sizing: border-box&quot;&gt;lignes&lt;/span&gt; &lt;span class=&quot;cm-operator&quot; style=&quot;box-sizing: border-box ; color: rgb(170 , 34 , 255) ; font-weight: bold&quot;&gt;=&lt;/span&gt; &lt;span class=&quot;cm-variable&quot; style=&quot;box-sizing: border-box&quot;&gt;csv&lt;/span&gt;.&lt;span class=&quot;cm-property&quot; style=&quot;box-sizing: border-box&quot;&gt;reader&lt;/span&gt;(&lt;span class=&quot;cm-variable&quot; style=&quot;box-sizing: border-box&quot;&gt;csvFile&lt;/span&gt;)&lt;br&gt;    &lt;span class=&quot;cm-variable&quot; style=&quot;box-sizing: border-box&quot;&gt;lu&lt;/span&gt; &lt;span class=&quot;cm-operator&quot; style=&quot;box-sizing: border-box ; color: rgb(170 , 34 , 255) ; font-weight: bold&quot;&gt;=&lt;/span&gt; [&lt;span class=&quot;cm-variable&quot; style=&quot;box-sizing: border-box&quot;&gt;ligne&lt;/span&gt; &lt;span class=&quot;cm-keyword&quot; style=&quot;box-sizing: border-box ; color: rgb(0 , 128 , 0) ; font-weight: bold&quot;&gt;for&lt;/span&gt; &lt;span class=&quot;cm-variable&quot; style=&quot;box-sizing: border-box&quot;&gt;ligne&lt;/span&gt; &lt;span class=&quot;cm-keyword&quot; style=&quot;box-sizing: border-box ; color: rgb(0 , 128 , 0) ; font-weight: bold&quot;&gt;in&lt;/span&gt; &lt;span class=&quot;cm-variable&quot; style=&quot;box-sizing: border-box&quot;&gt;lignes&lt;/span&gt;]&lt;/code&gt;&lt;/pre&gt;" style="text;html=1;fillColor=none;align=left;verticalAlign=middle;whiteSpace=wrap;rounded=1;glass=0;shadow=1;sketch=0;strokeWidth=1;perimeterSpacing=0;strokeColor=#FF6347;" vertex="1" parent="1">
          <mxGeometry x="330" y="40" width="690" height="110" as="geometry" />
        </mxCell>
        <mxCell id="I4Iv1_8okc4qpFNduwSg-6" value="&lt;pre style=&quot;box-sizing: border-box ; overflow: auto ; padding: 0px ; margin: 1em 2em ; line-height: inherit ; word-break: break-all ; overflow-wrap: break-word ; background-color: rgb(255 , 255 , 255) ; border: 0px ; border-radius: 2px&quot;&gt;&lt;code class=&quot;cm-s-ipython language-python&quot; style=&quot;box-sizing: border-box ; padding: 0px ; border-radius: 0px ; border: 0px&quot;&gt;&lt;span class=&quot;cm-keyword&quot; style=&quot;box-sizing: border-box&quot;&gt;&lt;pre style=&quot;text-align: center ; box-sizing: border-box ; overflow: auto ; padding: 0px ; margin: 1em 2em ; line-height: inherit ; word-break: break-all ; overflow-wrap: break-word ; border: 0px ; border-radius: 2px&quot;&gt;&lt;code class=&quot;cm-s-ipython language-python&quot; style=&quot;box-sizing: border-box ; padding: 0px ; border-radius: 0px ; border: 0px&quot;&gt;&lt;span class=&quot;cm-comment&quot; style=&quot;box-sizing: border-box ; font-style: italic&quot;&gt;&lt;font style=&quot;font-size: 18px&quot; color=&quot;#0000ff&quot;&gt;&lt;b&gt;# utiliser csv_DictReader :&lt;/b&gt;&lt;/font&gt;&lt;/span&gt;&lt;/code&gt;&lt;/pre&gt;&lt;/span&gt;&lt;/code&gt;&lt;/pre&gt;&lt;pre style=&quot;box-sizing: border-box ; overflow: auto ; font-size: 14px ; padding: 0px ; margin: 1em 2em ; line-height: inherit ; word-break: break-all ; overflow-wrap: break-word ; background-color: rgb(255 , 255 , 255) ; border: 0px ; border-radius: 2px&quot;&gt;&lt;code class=&quot;cm-s-ipython language-python&quot; style=&quot;box-sizing: border-box ; padding: 0px ; border-radius: 0px ; border: 0px&quot;&gt;&lt;span class=&quot;cm-keyword&quot; style=&quot;box-sizing: border-box ; color: rgb(0 , 128 , 0) ; font-weight: bold&quot;&gt;with&lt;/span&gt; &lt;span class=&quot;cm-builtin&quot; style=&quot;box-sizing: border-box ; color: rgb(0 , 128 , 0)&quot;&gt;open&lt;/span&gt;(&lt;span class=&quot;cm-string&quot; style=&quot;box-sizing: border-box ; color: rgb(186 , 33 , 33)&quot;&gt;&#39;filename.csv&#39;&lt;/span&gt;, &lt;span class=&quot;cm-variable&quot; style=&quot;box-sizing: border-box&quot;&gt;mode&lt;/span&gt; &lt;span class=&quot;cm-operator&quot; style=&quot;box-sizing: border-box ; color: rgb(170 , 34 , 255) ; font-weight: bold&quot;&gt;=&lt;/span&gt; &lt;span class=&quot;cm-string&quot; style=&quot;box-sizing: border-box ; color: rgb(186 , 33 , 33)&quot;&gt;&quot;r&quot;&lt;/span&gt;, &lt;span class=&quot;cm-variable&quot; style=&quot;box-sizing: border-box&quot;&gt;encoding&lt;/span&gt;&lt;span class=&quot;cm-operator&quot; style=&quot;box-sizing: border-box ; color: rgb(170 , 34 , 255) ; font-weight: bold&quot;&gt;=&lt;/span&gt;&lt;span class=&quot;cm-string&quot; style=&quot;box-sizing: border-box ; color: rgb(186 , 33 , 33)&quot;&gt;&#39;utf-8&#39;&lt;/span&gt;, &lt;span class=&quot;cm-variable&quot; style=&quot;box-sizing: border-box&quot;&gt;newline&lt;/span&gt; &lt;span class=&quot;cm-operator&quot; style=&quot;box-sizing: border-box ; color: rgb(170 , 34 , 255) ; font-weight: bold&quot;&gt;=&lt;/span&gt; &lt;span class=&quot;cm-string&quot; style=&quot;box-sizing: border-box ; color: rgb(186 , 33 , 33)&quot;&gt;&#39;&#39;&lt;/span&gt;) &lt;span class=&quot;cm-keyword&quot; style=&quot;box-sizing: border-box ; color: rgb(0 , 128 , 0) ; font-weight: bold&quot;&gt;as&lt;/span&gt; &lt;span class=&quot;cm-variable&quot; style=&quot;box-sizing: border-box&quot;&gt;csvFile&lt;/span&gt; :&lt;br&gt;    &lt;span class=&quot;cm-variable&quot; style=&quot;box-sizing: border-box&quot;&gt;lignes&lt;/span&gt; &lt;span class=&quot;cm-operator&quot; style=&quot;box-sizing: border-box ; color: rgb(170 , 34 , 255) ; font-weight: bold&quot;&gt;=&lt;/span&gt; &lt;span class=&quot;cm-variable&quot; style=&quot;box-sizing: border-box&quot;&gt;csv&lt;/span&gt;.&lt;span class=&quot;cm-property&quot; style=&quot;box-sizing: border-box&quot;&gt;DictReader&lt;/span&gt;(&lt;span class=&quot;cm-variable&quot; style=&quot;box-sizing: border-box&quot;&gt;csvFile&lt;/span&gt;)&lt;br&gt;    &lt;span class=&quot;cm-variable&quot; style=&quot;box-sizing: border-box&quot;&gt;lu&lt;/span&gt; &lt;span class=&quot;cm-operator&quot; style=&quot;box-sizing: border-box ; color: rgb(170 , 34 , 255) ; font-weight: bold&quot;&gt;=&lt;/span&gt; [&lt;span class=&quot;cm-builtin&quot; style=&quot;box-sizing: border-box ; color: rgb(0 , 128 , 0)&quot;&gt;dict&lt;/span&gt;(&lt;span class=&quot;cm-variable&quot; style=&quot;box-sizing: border-box&quot;&gt;ligne&lt;/span&gt;) &lt;span class=&quot;cm-keyword&quot; style=&quot;box-sizing: border-box ; color: rgb(0 , 128 , 0) ; font-weight: bold&quot;&gt;for&lt;/span&gt; &lt;span class=&quot;cm-variable&quot; style=&quot;box-sizing: border-box&quot;&gt;ligne&lt;/span&gt; &lt;span class=&quot;cm-keyword&quot; style=&quot;box-sizing: border-box ; color: rgb(0 , 128 , 0) ; font-weight: bold&quot;&gt;in&lt;/span&gt; &lt;span class=&quot;cm-variable&quot; style=&quot;box-sizing: border-box&quot;&gt;lignes&lt;/span&gt;]&lt;/code&gt;&lt;/pre&gt;" style="text;html=1;fillColor=none;align=left;verticalAlign=middle;whiteSpace=wrap;rounded=1;shadow=1;glass=0;sketch=0;strokeColor=#FF6347;" vertex="1" parent="1">
          <mxGeometry x="330" y="170" width="690" height="120" as="geometry" />
        </mxCell>
      </root>
    </mxGraphModel>
  </diagram>
  <diagram id="qYhsRtHtsUAfd6oV2dz9" name="extract">
    <mxGraphModel dx="2012" dy="588" grid="1" gridSize="10" guides="1" tooltips="1" connect="1" arrows="1" fold="1" page="1" pageScale="1" pageWidth="827" pageHeight="1169" math="0" shadow="0">
      <root>
        <mxCell id="_zys3OGNd551gsP9p51C-0" />
        <mxCell id="_zys3OGNd551gsP9p51C-1" parent="_zys3OGNd551gsP9p51C-0" />
        <mxCell id="_zys3OGNd551gsP9p51C-2" value="&lt;pre style=&quot;box-sizing: border-box ; overflow: auto ; font-size: 18px ; padding: 0px ; margin: 1em 2em ; line-height: inherit ; word-break: break-all ; overflow-wrap: break-word ; background-color: rgb(255 , 255 , 255) ; border: 0px ; border-radius: 2px&quot;&gt;&lt;code class=&quot;cm-s-ipython language-python&quot; style=&quot;box-sizing: border-box ; padding: 0px ; border-radius: 0px ; border: 0px&quot;&gt;[ &lt;span class=&quot;cm-variable&quot; style=&quot;box-sizing: border-box&quot;&gt;&lt;font color=&quot;#00cc00&quot; style=&quot;font-size: 18px&quot;&gt;p&lt;/font&gt;&lt;/span&gt;  &lt;font color=&quot;#0000ff&quot; style=&quot;font-size: 18px&quot;&gt;&lt;span class=&quot;cm-keyword&quot; style=&quot;box-sizing: border-box ; font-weight: bold&quot;&gt;for&lt;/span&gt; &lt;span class=&quot;cm-variable&quot; style=&quot;box-sizing: border-box&quot;&gt;p&lt;/span&gt; &lt;span class=&quot;cm-keyword&quot; style=&quot;box-sizing: border-box ; font-weight: bold&quot;&gt;in&lt;/span&gt; &lt;span class=&quot;cm-variable&quot; style=&quot;box-sizing: border-box&quot;&gt;personnes&lt;/span&gt;&lt;/font&gt;  &lt;font color=&quot;#ff0000&quot; style=&quot;font-size: 18px&quot;&gt;&lt;span class=&quot;cm-keyword&quot; style=&quot;box-sizing: border-box ; font-weight: bold&quot;&gt;if&lt;/span&gt; &lt;span class=&quot;cm-variable&quot; style=&quot;box-sizing: border-box&quot;&gt;p&lt;/span&gt;[&lt;span class=&quot;cm-string&quot; style=&quot;box-sizing: border-box&quot;&gt;&#39;nom&#39;&lt;/span&gt;] &lt;span class=&quot;cm-operator&quot; style=&quot;box-sizing: border-box ; font-weight: bold&quot;&gt;==&lt;/span&gt; &lt;span class=&quot;cm-string&quot; style=&quot;box-sizing: border-box&quot;&gt;&#39;Lenard&#39; &lt;/span&gt;&lt;/font&gt;]&lt;/code&gt;&lt;/pre&gt;" style="text;html=1;strokeColor=none;fillColor=none;align=center;verticalAlign=middle;whiteSpace=wrap;rounded=0;shadow=1;glass=0;sketch=0;" vertex="1" parent="_zys3OGNd551gsP9p51C-1">
          <mxGeometry x="80" y="120" width="580" height="30" as="geometry" />
        </mxCell>
        <mxCell id="Qh9k7nJEstq4WOeVbEwc-0" value="&lt;font style=&quot;font-size: 12px&quot;&gt;&lt;b&gt;Sélection de colonnes&lt;/b&gt;&lt;/font&gt;" style="text;html=1;strokeColor=none;fillColor=none;align=center;verticalAlign=middle;whiteSpace=wrap;rounded=0;shadow=1;glass=0;sketch=0;fontColor=#00CC00;" vertex="1" parent="_zys3OGNd551gsP9p51C-1">
          <mxGeometry x="80" y="70" width="140" height="20" as="geometry" />
        </mxCell>
        <mxCell id="Qh9k7nJEstq4WOeVbEwc-4" value="" style="endArrow=classic;html=1;fontColor=#00CC00;strokeColor=#00CC00;exitX=0.5;exitY=1;exitDx=0;exitDy=0;" edge="1" parent="_zys3OGNd551gsP9p51C-1" source="Qh9k7nJEstq4WOeVbEwc-0">
          <mxGeometry width="50" height="50" relative="1" as="geometry">
            <mxPoint x="390" y="220" as="sourcePoint" />
            <mxPoint x="150" y="120" as="targetPoint" />
          </mxGeometry>
        </mxCell>
        <mxCell id="Qh9k7nJEstq4WOeVbEwc-5" value="&lt;font style=&quot;font-size: 12px&quot;&gt;&lt;b&gt;Sélection d&#39;enregistrements (lignes)&lt;/b&gt;&lt;/font&gt;" style="text;html=1;strokeColor=none;fillColor=none;align=center;verticalAlign=middle;whiteSpace=wrap;rounded=0;shadow=1;glass=0;sketch=0;fontColor=#FF0000;" vertex="1" parent="_zys3OGNd551gsP9p51C-1">
          <mxGeometry x="430" y="70" width="220" height="20" as="geometry" />
        </mxCell>
        <mxCell id="Qh9k7nJEstq4WOeVbEwc-6" value="" style="endArrow=classic;html=1;exitX=0.312;exitY=1.136;exitDx=0;exitDy=0;fontColor=#FF0000;strokeColor=#FF0000;exitPerimeter=0;entryX=0.722;entryY=0;entryDx=0;entryDy=0;entryPerimeter=0;" edge="1" parent="_zys3OGNd551gsP9p51C-1" source="Qh9k7nJEstq4WOeVbEwc-5" target="_zys3OGNd551gsP9p51C-2">
          <mxGeometry width="50" height="50" relative="1" as="geometry">
            <mxPoint x="720" y="220" as="sourcePoint" />
            <mxPoint x="480" y="120" as="targetPoint" />
          </mxGeometry>
        </mxCell>
        <mxCell id="Qh9k7nJEstq4WOeVbEwc-7" value="&lt;font style=&quot;font-size: 12px&quot;&gt;&lt;b&gt;Parcours de la table&lt;/b&gt;&lt;/font&gt;" style="text;html=1;strokeColor=none;fillColor=none;align=center;verticalAlign=middle;whiteSpace=wrap;rounded=0;shadow=1;glass=0;sketch=0;fontColor=#0000FF;" vertex="1" parent="_zys3OGNd551gsP9p51C-1">
          <mxGeometry x="140" y="180" width="220" height="20" as="geometry" />
        </mxCell>
        <mxCell id="Qh9k7nJEstq4WOeVbEwc-8" value="" style="endArrow=classic;html=1;exitX=0.5;exitY=0;exitDx=0;exitDy=0;fontColor=#FF0000;strokeColor=#0000FF;entryX=0.288;entryY=1.11;entryDx=0;entryDy=0;entryPerimeter=0;" edge="1" parent="_zys3OGNd551gsP9p51C-1" source="Qh9k7nJEstq4WOeVbEwc-7" target="_zys3OGNd551gsP9p51C-2">
          <mxGeometry width="50" height="50" relative="1" as="geometry">
            <mxPoint x="508.6399999999999" y="92.72000000000003" as="sourcePoint" />
            <mxPoint x="280" y="160" as="targetPoint" />
          </mxGeometry>
        </mxCell>
        <mxCell id="O6Xws6WYNyr_3wihjXCj-0" value="&lt;pre style=&quot;box-sizing: border-box ; overflow: auto ; font-size: 18px ; padding: 0px ; margin: 1em 2em ; line-height: inherit ; word-break: break-all ; overflow-wrap: break-word ; background-color: rgb(255 , 255 , 255) ; border: 0px ; border-radius: 2px&quot;&gt;&lt;code class=&quot;cm-s-ipython language-python&quot; style=&quot;box-sizing: border-box ; padding: 0px ; border-radius: 0px ; border: 0px&quot;&gt;[ &lt;span class=&quot;cm-variable&quot; style=&quot;box-sizing: border-box&quot;&gt;&lt;font color=&quot;#00cc00&quot; style=&quot;font-size: 18px&quot;&gt;p[&#39;nom&#39;]&lt;/font&gt;&lt;/span&gt;  &lt;font color=&quot;#0000ff&quot; style=&quot;font-size: 18px&quot;&gt;&lt;span class=&quot;cm-keyword&quot; style=&quot;box-sizing: border-box ; font-weight: bold&quot;&gt;for&lt;/span&gt; &lt;span class=&quot;cm-variable&quot; style=&quot;box-sizing: border-box&quot;&gt;p&lt;/span&gt; &lt;span class=&quot;cm-keyword&quot; style=&quot;box-sizing: border-box ; font-weight: bold&quot;&gt;in&lt;/span&gt; &lt;span class=&quot;cm-variable&quot; style=&quot;box-sizing: border-box&quot;&gt;personnes&lt;/span&gt;&lt;/font&gt;  &lt;font color=&quot;#ff0000&quot; style=&quot;font-size: 18px&quot;&gt;&lt;span class=&quot;cm-keyword&quot; style=&quot;box-sizing: border-box ; font-weight: bold&quot;&gt;if&lt;/span&gt; &lt;span class=&quot;cm-variable&quot; style=&quot;box-sizing: border-box&quot;&gt;p&lt;/span&gt;[&lt;span class=&quot;cm-string&quot; style=&quot;box-sizing: border-box&quot;&gt;&#39;nom&#39;&lt;/span&gt;] &lt;span class=&quot;cm-operator&quot; style=&quot;box-sizing: border-box ; font-weight: bold&quot;&gt;==&lt;/span&gt; &lt;span class=&quot;cm-string&quot; style=&quot;box-sizing: border-box&quot;&gt;&#39;Lenard&#39; &lt;/span&gt;&lt;/font&gt;]&lt;/code&gt;&lt;/pre&gt;" style="text;html=1;strokeColor=none;fillColor=none;align=center;verticalAlign=middle;whiteSpace=wrap;rounded=0;shadow=1;glass=0;sketch=0;" vertex="1" parent="_zys3OGNd551gsP9p51C-1">
          <mxGeometry x="80" y="310" width="630" height="30" as="geometry" />
        </mxCell>
        <mxCell id="O6Xws6WYNyr_3wihjXCj-1" value="&lt;font style=&quot;font-size: 12px&quot;&gt;&lt;b&gt;Sélection de colonnes&lt;/b&gt;&lt;/font&gt;" style="text;html=1;strokeColor=none;fillColor=none;align=center;verticalAlign=middle;whiteSpace=wrap;rounded=0;shadow=1;glass=0;sketch=0;fontColor=#00CC00;" vertex="1" parent="_zys3OGNd551gsP9p51C-1">
          <mxGeometry x="90" y="260" width="140" height="20" as="geometry" />
        </mxCell>
        <mxCell id="O6Xws6WYNyr_3wihjXCj-2" value="" style="endArrow=classic;html=1;fontColor=#00CC00;strokeColor=#00CC00;exitX=0.5;exitY=1;exitDx=0;exitDy=0;" edge="1" parent="_zys3OGNd551gsP9p51C-1" source="O6Xws6WYNyr_3wihjXCj-1">
          <mxGeometry width="50" height="50" relative="1" as="geometry">
            <mxPoint x="400" y="410" as="sourcePoint" />
            <mxPoint x="160" y="310" as="targetPoint" />
          </mxGeometry>
        </mxCell>
        <mxCell id="O6Xws6WYNyr_3wihjXCj-3" value="&lt;font style=&quot;font-size: 12px&quot;&gt;&lt;b&gt;Sélection d&#39;enregistrements (lignes)&lt;/b&gt;&lt;/font&gt;" style="text;html=1;strokeColor=none;fillColor=none;align=center;verticalAlign=middle;whiteSpace=wrap;rounded=0;shadow=1;glass=0;sketch=0;fontColor=#FF0000;" vertex="1" parent="_zys3OGNd551gsP9p51C-1">
          <mxGeometry x="430" y="260" width="220" height="20" as="geometry" />
        </mxCell>
        <mxCell id="O6Xws6WYNyr_3wihjXCj-4" value="" style="endArrow=classic;html=1;exitX=0.312;exitY=1.136;exitDx=0;exitDy=0;fontColor=#FF0000;strokeColor=#FF0000;exitPerimeter=0;entryX=0.665;entryY=0;entryDx=0;entryDy=0;entryPerimeter=0;" edge="1" parent="_zys3OGNd551gsP9p51C-1" source="O6Xws6WYNyr_3wihjXCj-3" target="O6Xws6WYNyr_3wihjXCj-0">
          <mxGeometry width="50" height="50" relative="1" as="geometry">
            <mxPoint x="720" y="410" as="sourcePoint" />
            <mxPoint x="480" y="310" as="targetPoint" />
          </mxGeometry>
        </mxCell>
        <mxCell id="O6Xws6WYNyr_3wihjXCj-5" value="&lt;font style=&quot;font-size: 12px&quot;&gt;&lt;b&gt;Parcours de la table&lt;/b&gt;&lt;/font&gt;" style="text;html=1;strokeColor=none;fillColor=none;align=center;verticalAlign=middle;whiteSpace=wrap;rounded=0;shadow=1;glass=0;sketch=0;fontColor=#0000FF;" vertex="1" parent="_zys3OGNd551gsP9p51C-1">
          <mxGeometry x="170" y="370" width="220" height="20" as="geometry" />
        </mxCell>
        <mxCell id="O6Xws6WYNyr_3wihjXCj-6" value="" style="endArrow=classic;html=1;exitX=0.5;exitY=0;exitDx=0;exitDy=0;fontColor=#FF0000;strokeColor=#0000FF;entryX=0.332;entryY=1.053;entryDx=0;entryDy=0;entryPerimeter=0;" edge="1" parent="_zys3OGNd551gsP9p51C-1" source="O6Xws6WYNyr_3wihjXCj-5" target="O6Xws6WYNyr_3wihjXCj-0">
          <mxGeometry width="50" height="50" relative="1" as="geometry">
            <mxPoint x="508.6399999999999" y="282.72" as="sourcePoint" />
            <mxPoint x="280" y="350" as="targetPoint" />
          </mxGeometry>
        </mxCell>
        <mxCell id="O6Xws6WYNyr_3wihjXCj-7" value="&lt;pre style=&quot;box-sizing: border-box ; overflow: auto ; font-size: 18px ; padding: 0px ; margin: 1em 2em ; line-height: inherit ; word-break: break-all ; overflow-wrap: break-word ; background-color: rgb(255 , 255 , 255) ; border: 0px ; border-radius: 2px&quot;&gt;&lt;code class=&quot;cm-s-ipython language-python&quot; style=&quot;box-sizing: border-box ; padding: 0px ; border-radius: 0px ; border: 0px&quot;&gt;[ &lt;font color=&quot;#00cc00&quot;&gt;{&#39;nom&#39;:p&lt;/font&gt;&lt;span class=&quot;cm-variable&quot; style=&quot;box-sizing: border-box&quot;&gt;&lt;font color=&quot;#00cc00&quot; style=&quot;font-size: 18px&quot;&gt;[&#39;nom&#39;]}&lt;/font&gt;&lt;/span&gt;  &lt;font color=&quot;#0000ff&quot; style=&quot;font-size: 18px&quot;&gt;&lt;span class=&quot;cm-keyword&quot; style=&quot;box-sizing: border-box ; font-weight: bold&quot;&gt;for&lt;/span&gt; &lt;span class=&quot;cm-variable&quot; style=&quot;box-sizing: border-box&quot;&gt;p&lt;/span&gt; &lt;span class=&quot;cm-keyword&quot; style=&quot;box-sizing: border-box ; font-weight: bold&quot;&gt;in&lt;/span&gt; &lt;span class=&quot;cm-variable&quot; style=&quot;box-sizing: border-box&quot;&gt;personnes&lt;/span&gt;&lt;/font&gt;  &lt;font color=&quot;#ff0000&quot; style=&quot;font-size: 18px&quot;&gt;&lt;span class=&quot;cm-keyword&quot; style=&quot;box-sizing: border-box ; font-weight: bold&quot;&gt;if&lt;/span&gt; &lt;span class=&quot;cm-variable&quot; style=&quot;box-sizing: border-box&quot;&gt;p&lt;/span&gt;[&lt;span class=&quot;cm-string&quot; style=&quot;box-sizing: border-box&quot;&gt;&#39;nom&#39;&lt;/span&gt;] &lt;span class=&quot;cm-operator&quot; style=&quot;box-sizing: border-box ; font-weight: bold&quot;&gt;==&lt;/span&gt; &lt;span class=&quot;cm-string&quot; style=&quot;box-sizing: border-box&quot;&gt;&#39;Lenard&#39; &lt;/span&gt;&lt;/font&gt;]&lt;/code&gt;&lt;/pre&gt;" style="text;html=1;strokeColor=none;fillColor=none;align=center;verticalAlign=middle;whiteSpace=wrap;rounded=0;shadow=1;glass=0;sketch=0;" vertex="1" parent="_zys3OGNd551gsP9p51C-1">
          <mxGeometry x="70" y="505" width="630" height="30" as="geometry" />
        </mxCell>
        <mxCell id="O6Xws6WYNyr_3wihjXCj-8" value="&lt;font style=&quot;font-size: 12px&quot;&gt;&lt;b&gt;Sélection de colonnes&lt;/b&gt;&lt;/font&gt;" style="text;html=1;strokeColor=none;fillColor=none;align=center;verticalAlign=middle;whiteSpace=wrap;rounded=0;shadow=1;glass=0;sketch=0;fontColor=#00CC00;" vertex="1" parent="_zys3OGNd551gsP9p51C-1">
          <mxGeometry x="80" y="455" width="140" height="20" as="geometry" />
        </mxCell>
        <mxCell id="O6Xws6WYNyr_3wihjXCj-9" value="" style="endArrow=classic;html=1;fontColor=#00CC00;strokeColor=#00CC00;exitX=0.5;exitY=1;exitDx=0;exitDy=0;" edge="1" parent="_zys3OGNd551gsP9p51C-1" source="O6Xws6WYNyr_3wihjXCj-8">
          <mxGeometry width="50" height="50" relative="1" as="geometry">
            <mxPoint x="390" y="605" as="sourcePoint" />
            <mxPoint x="150" y="505" as="targetPoint" />
          </mxGeometry>
        </mxCell>
        <mxCell id="O6Xws6WYNyr_3wihjXCj-10" value="&lt;font style=&quot;font-size: 12px&quot;&gt;&lt;b&gt;Sélection d&#39;enregistrements (lignes)&lt;/b&gt;&lt;/font&gt;" style="text;html=1;strokeColor=none;fillColor=none;align=center;verticalAlign=middle;whiteSpace=wrap;rounded=0;shadow=1;glass=0;sketch=0;fontColor=#FF0000;" vertex="1" parent="_zys3OGNd551gsP9p51C-1">
          <mxGeometry x="420" y="455" width="220" height="20" as="geometry" />
        </mxCell>
        <mxCell id="O6Xws6WYNyr_3wihjXCj-11" value="" style="endArrow=classic;html=1;exitX=0.312;exitY=1.136;exitDx=0;exitDy=0;fontColor=#FF0000;strokeColor=#FF0000;exitPerimeter=0;entryX=0.665;entryY=0;entryDx=0;entryDy=0;entryPerimeter=0;" edge="1" parent="_zys3OGNd551gsP9p51C-1" source="O6Xws6WYNyr_3wihjXCj-10" target="O6Xws6WYNyr_3wihjXCj-7">
          <mxGeometry width="50" height="50" relative="1" as="geometry">
            <mxPoint x="710" y="605" as="sourcePoint" />
            <mxPoint x="470" y="505" as="targetPoint" />
          </mxGeometry>
        </mxCell>
        <mxCell id="O6Xws6WYNyr_3wihjXCj-12" value="&lt;font style=&quot;font-size: 12px&quot;&gt;&lt;b&gt;Parcours de la table&lt;/b&gt;&lt;/font&gt;" style="text;html=1;strokeColor=none;fillColor=none;align=center;verticalAlign=middle;whiteSpace=wrap;rounded=0;shadow=1;glass=0;sketch=0;fontColor=#0000FF;" vertex="1" parent="_zys3OGNd551gsP9p51C-1">
          <mxGeometry x="220" y="564.5" width="220" height="20" as="geometry" />
        </mxCell>
        <mxCell id="O6Xws6WYNyr_3wihjXCj-13" value="" style="endArrow=classic;html=1;exitX=0.5;exitY=0;exitDx=0;exitDy=0;fontColor=#FF0000;strokeColor=#0000FF;entryX=0.407;entryY=1.094;entryDx=0;entryDy=0;entryPerimeter=0;" edge="1" parent="_zys3OGNd551gsP9p51C-1" source="O6Xws6WYNyr_3wihjXCj-12" target="O6Xws6WYNyr_3wihjXCj-7">
          <mxGeometry width="50" height="50" relative="1" as="geometry">
            <mxPoint x="498.6399999999999" y="477.72" as="sourcePoint" />
            <mxPoint x="270" y="545" as="targetPoint" />
          </mxGeometry>
        </mxCell>
        <mxCell id="O6Xws6WYNyr_3wihjXCj-14" value="&lt;pre style=&quot;box-sizing: border-box ; overflow: auto ; font-size: 18px ; padding: 0px ; margin: 1em 2em ; line-height: inherit ; word-break: break-all ; overflow-wrap: break-word ; background-color: rgb(255 , 255 , 255) ; border: 0px ; border-radius: 2px&quot;&gt;&lt;code class=&quot;cm-s-ipython language-python&quot; style=&quot;box-sizing: border-box ; padding: 0px ; border-radius: 0px ; border: 0px&quot;&gt;[ &lt;font color=&quot;#00cc00&quot;&gt;{&#39;nom&#39;:p&lt;/font&gt;&lt;span class=&quot;cm-variable&quot; style=&quot;box-sizing: border-box&quot;&gt;&lt;font color=&quot;#00cc00&quot; style=&quot;font-size: 18px&quot;&gt;[&#39;nom&#39;]}&lt;/font&gt;&lt;/span&gt;  &lt;font color=&quot;#0000ff&quot; style=&quot;font-size: 18px&quot;&gt;&lt;span class=&quot;cm-keyword&quot; style=&quot;box-sizing: border-box ; font-weight: bold&quot;&gt;for&lt;/span&gt; &lt;span class=&quot;cm-variable&quot; style=&quot;box-sizing: border-box&quot;&gt;p&lt;/span&gt; &lt;span class=&quot;cm-keyword&quot; style=&quot;box-sizing: border-box ; font-weight: bold&quot;&gt;in&lt;/span&gt; &lt;span class=&quot;cm-variable&quot; style=&quot;box-sizing: border-box&quot;&gt;personnes&lt;/span&gt;&lt;/font&gt; ]&lt;/code&gt;&lt;/pre&gt;" style="text;html=1;strokeColor=none;fillColor=none;align=center;verticalAlign=middle;whiteSpace=wrap;rounded=0;shadow=1;glass=0;sketch=0;" vertex="1" parent="_zys3OGNd551gsP9p51C-1">
          <mxGeometry x="420" y="770" width="400" height="30" as="geometry" />
        </mxCell>
        <mxCell id="O6Xws6WYNyr_3wihjXCj-15" value="&lt;font style=&quot;font-size: 12px&quot;&gt;&lt;b&gt;Sélection de colonnes&lt;/b&gt;&lt;/font&gt;" style="text;html=1;strokeColor=none;fillColor=none;align=center;verticalAlign=middle;whiteSpace=wrap;rounded=0;shadow=1;glass=0;sketch=0;fontColor=#00CC00;" vertex="1" parent="_zys3OGNd551gsP9p51C-1">
          <mxGeometry x="440" y="720" width="140" height="20" as="geometry" />
        </mxCell>
        <mxCell id="O6Xws6WYNyr_3wihjXCj-16" value="" style="endArrow=classic;html=1;fontColor=#00CC00;strokeColor=#00CC00;exitX=0.5;exitY=1;exitDx=0;exitDy=0;entryX=0.224;entryY=-0.005;entryDx=0;entryDy=0;entryPerimeter=0;" edge="1" parent="_zys3OGNd551gsP9p51C-1" source="O6Xws6WYNyr_3wihjXCj-15" target="O6Xws6WYNyr_3wihjXCj-14">
          <mxGeometry width="50" height="50" relative="1" as="geometry">
            <mxPoint x="730" y="870" as="sourcePoint" />
            <mxPoint x="490" y="770" as="targetPoint" />
          </mxGeometry>
        </mxCell>
        <mxCell id="O6Xws6WYNyr_3wihjXCj-19" value="&lt;font style=&quot;font-size: 12px&quot;&gt;&lt;b&gt;Parcours de la table&lt;/b&gt;&lt;/font&gt;" style="text;html=1;strokeColor=none;fillColor=none;align=center;verticalAlign=middle;whiteSpace=wrap;rounded=0;shadow=1;glass=0;sketch=0;fontColor=#0000FF;" vertex="1" parent="_zys3OGNd551gsP9p51C-1">
          <mxGeometry x="630" y="829.5" width="150" height="20" as="geometry" />
        </mxCell>
        <mxCell id="O6Xws6WYNyr_3wihjXCj-20" value="" style="endArrow=classic;html=1;exitX=0.5;exitY=0;exitDx=0;exitDy=0;fontColor=#FF0000;strokeColor=#0000FF;entryX=0.674;entryY=1.145;entryDx=0;entryDy=0;entryPerimeter=0;" edge="1" parent="_zys3OGNd551gsP9p51C-1" source="O6Xws6WYNyr_3wihjXCj-19" target="O6Xws6WYNyr_3wihjXCj-14">
          <mxGeometry width="50" height="50" relative="1" as="geometry">
            <mxPoint x="838.6399999999999" y="742.72" as="sourcePoint" />
            <mxPoint x="610" y="810" as="targetPoint" />
          </mxGeometry>
        </mxCell>
        <mxCell id="O6Xws6WYNyr_3wihjXCj-21" value="&lt;pre style=&quot;box-sizing: border-box ; overflow: auto ; font-size: 18px ; padding: 0px ; margin: 1em 2em ; line-height: inherit ; word-break: break-all ; overflow-wrap: break-word ; background-color: rgb(255 , 255 , 255) ; border: 0px ; border-radius: 2px&quot;&gt;&lt;code class=&quot;cm-s-ipython language-python&quot; style=&quot;box-sizing: border-box ; padding: 0px ; border-radius: 0px ; border: 0px&quot;&gt;[ &lt;span class=&quot;cm-variable&quot; style=&quot;box-sizing: border-box&quot;&gt;&lt;font color=&quot;#00cc00&quot; style=&quot;font-size: 18px&quot;&gt;p[&#39;nom&#39;]&lt;/font&gt;&lt;/span&gt;  &lt;font color=&quot;#0000ff&quot; style=&quot;font-size: 18px&quot;&gt;&lt;span class=&quot;cm-keyword&quot; style=&quot;box-sizing: border-box ; font-weight: bold&quot;&gt;for&lt;/span&gt; &lt;span class=&quot;cm-variable&quot; style=&quot;box-sizing: border-box&quot;&gt;p&lt;/span&gt; &lt;span class=&quot;cm-keyword&quot; style=&quot;box-sizing: border-box ; font-weight: bold&quot;&gt;in&lt;/span&gt; &lt;span class=&quot;cm-variable&quot; style=&quot;box-sizing: border-box&quot;&gt;personnes&lt;/span&gt;&lt;/font&gt;&lt;font color=&quot;#ff0000&quot; style=&quot;font-size: 18px&quot;&gt;&lt;span class=&quot;cm-string&quot; style=&quot;box-sizing: border-box&quot;&gt; &lt;/span&gt;&lt;/font&gt;]&lt;/code&gt;&lt;/pre&gt;" style="text;html=1;strokeColor=none;fillColor=none;align=center;verticalAlign=middle;whiteSpace=wrap;rounded=0;shadow=1;glass=0;sketch=0;" vertex="1" parent="_zys3OGNd551gsP9p51C-1">
          <mxGeometry x="20" y="770" width="330" height="30" as="geometry" />
        </mxCell>
        <mxCell id="O6Xws6WYNyr_3wihjXCj-22" value="&lt;font style=&quot;font-size: 12px&quot;&gt;&lt;b&gt;Sélection de colonnes&lt;/b&gt;&lt;/font&gt;" style="text;html=1;strokeColor=none;fillColor=none;align=center;verticalAlign=middle;whiteSpace=wrap;rounded=0;shadow=1;glass=0;sketch=0;fontColor=#00CC00;" vertex="1" parent="_zys3OGNd551gsP9p51C-1">
          <mxGeometry x="30" y="720" width="140" height="20" as="geometry" />
        </mxCell>
        <mxCell id="O6Xws6WYNyr_3wihjXCj-23" value="" style="endArrow=classic;html=1;fontColor=#00CC00;strokeColor=#00CC00;exitX=0.5;exitY=1;exitDx=0;exitDy=0;entryX=0.212;entryY=0.006;entryDx=0;entryDy=0;entryPerimeter=0;" edge="1" parent="_zys3OGNd551gsP9p51C-1" source="O6Xws6WYNyr_3wihjXCj-22" target="O6Xws6WYNyr_3wihjXCj-21">
          <mxGeometry width="50" height="50" relative="1" as="geometry">
            <mxPoint x="180" y="870" as="sourcePoint" />
            <mxPoint x="-60" y="770" as="targetPoint" />
          </mxGeometry>
        </mxCell>
        <mxCell id="O6Xws6WYNyr_3wihjXCj-26" value="&lt;font style=&quot;font-size: 12px&quot;&gt;&lt;b&gt;Parcours de la table&lt;/b&gt;&lt;/font&gt;" style="text;html=1;strokeColor=none;fillColor=none;align=center;verticalAlign=middle;whiteSpace=wrap;rounded=0;shadow=1;glass=0;sketch=0;fontColor=#0000FF;" vertex="1" parent="_zys3OGNd551gsP9p51C-1">
          <mxGeometry x="170" y="830" width="140" height="20" as="geometry" />
        </mxCell>
        <mxCell id="O6Xws6WYNyr_3wihjXCj-27" value="" style="endArrow=classic;html=1;exitX=0.5;exitY=0;exitDx=0;exitDy=0;fontColor=#FF0000;strokeColor=#0000FF;" edge="1" parent="_zys3OGNd551gsP9p51C-1" source="O6Xws6WYNyr_3wihjXCj-26" target="O6Xws6WYNyr_3wihjXCj-21">
          <mxGeometry width="50" height="50" relative="1" as="geometry">
            <mxPoint x="288.6399999999999" y="742.72" as="sourcePoint" />
            <mxPoint x="60" y="810" as="targetPoint" />
          </mxGeometry>
        </mxCell>
        <mxCell id="O6Xws6WYNyr_3wihjXCj-28" value="&lt;font size=&quot;1&quot;&gt;&lt;b style=&quot;font-size: 14px&quot;&gt;&lt;u&gt;Pour obtenir une liste de noms&lt;/u&gt;&lt;/b&gt;&lt;/font&gt;" style="text;html=1;strokeColor=none;fillColor=none;align=center;verticalAlign=middle;whiteSpace=wrap;rounded=0;shadow=1;glass=0;sketch=0;fontColor=#FF0000;" vertex="1" parent="_zys3OGNd551gsP9p51C-1">
          <mxGeometry x="75" y="690" width="220" height="20" as="geometry" />
        </mxCell>
        <mxCell id="O6Xws6WYNyr_3wihjXCj-29" value="&lt;font size=&quot;1&quot;&gt;&lt;b style=&quot;font-size: 14px&quot;&gt;&lt;u&gt;Pour obtenir une liste de dictionnaires&lt;/u&gt;&lt;/b&gt;&lt;/font&gt;" style="text;html=1;strokeColor=none;fillColor=none;align=center;verticalAlign=middle;whiteSpace=wrap;rounded=0;shadow=1;glass=0;sketch=0;fontColor=#FF0000;" vertex="1" parent="_zys3OGNd551gsP9p51C-1">
          <mxGeometry x="490" y="690" width="280" height="20" as="geometry" />
        </mxCell>
        <mxCell id="O6Xws6WYNyr_3wihjXCj-30" value="" style="endArrow=none;html=1;fontColor=#FF0000;dashed=1;strokeWidth=3;strokeColor=#FF0000;" edge="1" parent="_zys3OGNd551gsP9p51C-1">
          <mxGeometry width="50" height="50" relative="1" as="geometry">
            <mxPoint x="388" y="690" as="sourcePoint" />
            <mxPoint x="388" y="860" as="targetPoint" />
          </mxGeometry>
        </mxCell>
        <mxCell id="O6Xws6WYNyr_3wihjXCj-31" value="&lt;pre style=&quot;box-sizing: border-box ; overflow: auto ; font-size: 18px ; padding: 0px ; margin: 1em 2em ; line-height: inherit ; word-break: break-all ; overflow-wrap: break-word ; background-color: rgb(255 , 255 , 255) ; border: 0px ; border-radius: 2px&quot;&gt;&lt;code class=&quot;cm-s-ipython language-python&quot; style=&quot;box-sizing: border-box ; padding: 0px ; border-radius: 0px ; border: 0px&quot;&gt;[ &lt;font color=&quot;#00cc00&quot;&gt;{&#39;nom&#39;:p&lt;/font&gt;&lt;span class=&quot;cm-variable&quot; style=&quot;box-sizing: border-box&quot;&gt;&lt;font color=&quot;#00cc00&quot; style=&quot;font-size: 18px&quot;&gt;[&#39;nom&#39;] , &#39;age&#39;:p[&#39;age&#39;}]}&lt;/font&gt;&lt;/span&gt;  &lt;font color=&quot;#0000ff&quot; style=&quot;font-size: 18px&quot;&gt;&lt;span class=&quot;cm-keyword&quot; style=&quot;box-sizing: border-box ; font-weight: bold&quot;&gt;for&lt;/span&gt; &lt;span class=&quot;cm-variable&quot; style=&quot;box-sizing: border-box&quot;&gt;p&lt;/span&gt; &lt;span class=&quot;cm-keyword&quot; style=&quot;box-sizing: border-box ; font-weight: bold&quot;&gt;in&lt;/span&gt; &lt;span class=&quot;cm-variable&quot; style=&quot;box-sizing: border-box&quot;&gt;personnes&lt;/span&gt;&lt;/font&gt; ]&lt;/code&gt;&lt;/pre&gt;" style="text;html=1;strokeColor=none;fillColor=none;align=center;verticalAlign=middle;whiteSpace=wrap;rounded=0;shadow=1;glass=0;sketch=0;" vertex="1" parent="_zys3OGNd551gsP9p51C-1">
          <mxGeometry x="90" y="990" width="580" height="30" as="geometry" />
        </mxCell>
        <mxCell id="O6Xws6WYNyr_3wihjXCj-32" value="&lt;font style=&quot;font-size: 12px&quot;&gt;&lt;b&gt;Sélection de colonnes&lt;/b&gt;&lt;/font&gt;" style="text;html=1;strokeColor=none;fillColor=none;align=center;verticalAlign=middle;whiteSpace=wrap;rounded=0;shadow=1;glass=0;sketch=0;fontColor=#00CC00;" vertex="1" parent="_zys3OGNd551gsP9p51C-1">
          <mxGeometry x="190" y="940" width="140" height="20" as="geometry" />
        </mxCell>
        <mxCell id="O6Xws6WYNyr_3wihjXCj-33" value="" style="endArrow=classic;html=1;fontColor=#00CC00;strokeColor=#00CC00;exitX=0.5;exitY=1;exitDx=0;exitDy=0;entryX=0.357;entryY=-0.005;entryDx=0;entryDy=0;entryPerimeter=0;" edge="1" parent="_zys3OGNd551gsP9p51C-1" source="O6Xws6WYNyr_3wihjXCj-32" target="O6Xws6WYNyr_3wihjXCj-31">
          <mxGeometry width="50" height="50" relative="1" as="geometry">
            <mxPoint x="480" y="1090" as="sourcePoint" />
            <mxPoint x="240" y="990" as="targetPoint" />
          </mxGeometry>
        </mxCell>
        <mxCell id="O6Xws6WYNyr_3wihjXCj-34" value="&lt;font style=&quot;font-size: 12px&quot;&gt;&lt;b&gt;Parcours de la table&lt;/b&gt;&lt;/font&gt;" style="text;html=1;strokeColor=none;fillColor=none;align=center;verticalAlign=middle;whiteSpace=wrap;rounded=0;shadow=1;glass=0;sketch=0;fontColor=#0000FF;" vertex="1" parent="_zys3OGNd551gsP9p51C-1">
          <mxGeometry x="440" y="1049.5" width="150" height="20" as="geometry" />
        </mxCell>
        <mxCell id="O6Xws6WYNyr_3wihjXCj-35" value="" style="endArrow=classic;html=1;exitX=0.5;exitY=0;exitDx=0;exitDy=0;fontColor=#FF0000;strokeColor=#0000FF;entryX=0.733;entryY=1.039;entryDx=0;entryDy=0;entryPerimeter=0;" edge="1" parent="_zys3OGNd551gsP9p51C-1" source="O6Xws6WYNyr_3wihjXCj-34" target="O6Xws6WYNyr_3wihjXCj-31">
          <mxGeometry width="50" height="50" relative="1" as="geometry">
            <mxPoint x="588.6399999999999" y="962.72" as="sourcePoint" />
            <mxPoint x="360" y="1030" as="targetPoint" />
          </mxGeometry>
        </mxCell>
      </root>
    </mxGraphModel>
  </diagram>
</mxfile>
